<mxfile host="app.diagrams.net" modified="2023-12-21T08:34:47.962Z" agent="Mozilla/5.0 (Windows NT 10.0; Win64; x64) AppleWebKit/537.36 (KHTML, like Gecko) Chrome/120.0.0.0 Safari/537.36" etag="ke2pJqQP26whF3-XPBuC" version="22.1.11" type="github">
  <diagram name="ページ1" id="xm18Zlq5yV-mgP2RJiYh">
    <mxGraphModel dx="1018" dy="661" grid="1" gridSize="10" guides="1" tooltips="1" connect="1" arrows="1" fold="1" page="1" pageScale="1" pageWidth="827" pageHeight="1169" math="0" shadow="0">
      <root>
        <mxCell id="0" />
        <mxCell id="1" parent="0" />
        <mxCell id="T3h4QOyVKtQDXb-2JU2L-1" value="Tree Container" style="swimlane;startSize=20;horizontal=1;containerType=tree;" vertex="1" parent="1">
          <mxGeometry x="240" y="440" width="400" height="320" as="geometry" />
        </mxCell>
        <mxCell id="T3h4QOyVKtQDXb-2JU2L-2" value="" style="edgeStyle=elbowEdgeStyle;elbow=vertical;sourcePerimeterSpacing=0;targetPerimeterSpacing=0;startArrow=none;endArrow=none;rounded=0;curved=0;" edge="1" parent="T3h4QOyVKtQDXb-2JU2L-1" source="T3h4QOyVKtQDXb-2JU2L-3" target="T3h4QOyVKtQDXb-2JU2L-4">
          <mxGeometry relative="1" as="geometry" />
        </mxCell>
        <mxCell id="T3h4QOyVKtQDXb-2JU2L-3" value="Parent" style="whiteSpace=wrap;html=1;treeFolding=1;treeMoving=1;newEdgeStyle={&quot;edgeStyle&quot;:&quot;elbowEdgeStyle&quot;,&quot;startArrow&quot;:&quot;none&quot;,&quot;endArrow&quot;:&quot;none&quot;};" vertex="1" parent="T3h4QOyVKtQDXb-2JU2L-1">
          <mxGeometry x="140" y="60" width="120" height="40" as="geometry" />
        </mxCell>
        <mxCell id="T3h4QOyVKtQDXb-2JU2L-4" value="Child" style="whiteSpace=wrap;html=1;treeFolding=1;treeMoving=1;newEdgeStyle={&quot;edgeStyle&quot;:&quot;elbowEdgeStyle&quot;,&quot;startArrow&quot;:&quot;none&quot;,&quot;endArrow&quot;:&quot;none&quot;};" vertex="1" parent="T3h4QOyVKtQDXb-2JU2L-1">
          <mxGeometry x="140" y="140" width="120" height="40" as="geometry" />
        </mxCell>
      </root>
    </mxGraphModel>
  </diagram>
</mxfile>
